<svg width="707" height="694" viewBox="0 0 707 694" fill="none" xmlns="http://www.w3.org/2000/svg">
<path d="M195.882 0.608612C193.349 0.741943 184.682 1.54196 176.549 2.34195C150.415 4.74194 132.282 7.94196 121.215 12.0753C112.282 15.4086 89.3488 27.942 81.3488 33.942C78.1488 36.342 74.6821 38.342 73.7488 38.342C72.8155 38.342 68.4155 41.6753 64.1488 45.6753C59.7488 49.6753 55.4821 53.0086 54.5488 53.0086C53.0821 53.0086 1.08214 102.875 0.148809 105.275C-0.784525 107.409 2.81548 106.342 6.94881 103.142C9.34881 101.409 12.5488 99.542 14.2821 99.0086C15.8821 98.6086 19.8821 96.742 22.9488 94.8753C26.0155 93.142 30.4155 91.6753 32.8155 91.6753C35.2155 91.6753 38.5488 90.342 40.8155 88.4753C45.6155 84.4753 52.4155 81.0086 55.4821 81.0086C56.8155 81.0086 59.8821 79.8086 62.2821 78.342C64.6821 76.8753 68.1488 75.6753 70.0155 75.6753C71.7488 75.6753 75.6155 74.4753 78.5488 73.0086C81.4821 71.542 85.0821 70.342 86.5488 70.342C88.0155 70.342 91.6155 69.142 94.5488 67.6753C97.4821 66.2086 102.149 65.0086 104.949 65.0086C107.749 65.0086 113.749 63.8086 118.282 62.2086C125.482 59.8086 129.082 59.542 143.615 59.942C156.282 60.2086 161.615 61.0086 165.082 62.742C167.615 63.942 171.349 65.0086 173.482 65.0086C175.615 65.0086 179.615 66.2086 182.549 67.6753C185.482 69.142 189.215 70.342 190.949 70.342C192.815 70.342 197.082 71.542 200.682 72.8753C204.282 74.2086 211.882 77.0086 217.482 79.0086C223.215 81.0086 236.949 88.0753 248.815 95.2753C260.415 102.209 271.615 108.875 273.749 110.075C281.615 114.742 287.749 119.675 291.215 124.209C294.815 128.875 296.015 134.209 298.549 155.675C301.082 176.742 302.282 184.475 303.749 190.342C307.082 202.875 313.615 220.209 319.215 232.075C324.949 243.809 325.215 244.875 325.215 256.609C325.215 263.409 325.749 270.209 326.415 271.942C327.082 273.675 328.015 276.609 328.415 278.609C328.949 280.742 330.149 282.342 331.082 282.342C332.149 282.342 333.349 283.409 333.615 284.609C334.149 286.475 334.282 286.475 334.415 284.209C334.415 282.609 333.615 279.142 332.549 276.609C330.282 271.009 330.149 270.342 331.749 270.342C332.415 270.342 333.749 272.209 334.682 274.609C336.415 278.875 336.415 278.875 337.349 275.675C337.882 273.809 338.282 270.209 338.415 267.542C338.549 264.875 339.482 261.942 340.682 260.875C346.015 256.475 354.415 232.875 357.082 214.742C361.349 186.609 355.482 156.475 340.149 127.009C332.149 111.675 317.882 96.742 305.215 90.6086C297.082 86.6086 265.082 75.0086 245.215 68.742C230.415 64.0753 227.882 62.6086 225.749 57.6753C224.815 55.142 223.882 51.2753 223.882 49.0086C223.882 44.0753 220.815 43.6753 217.882 48.2086C215.082 52.4753 209.215 54.742 204.549 53.542C200.682 52.6086 200.815 52.6086 206.415 50.8753C212.682 49.0086 217.749 45.0086 220.682 39.4086C223.482 33.942 222.949 30.6086 218.682 26.2086C210.282 17.8086 193.349 23.8086 189.215 36.4753C188.149 39.6753 188.149 41.6753 189.349 43.942C190.549 46.342 190.549 46.6086 189.215 45.542C188.415 44.6086 186.949 40.742 186.015 36.8753C184.149 27.942 182.015 27.542 181.482 36.0753C181.215 39.8086 180.549 42.0753 179.749 41.542C179.082 41.142 176.415 42.6086 173.749 44.8753C171.215 47.142 168.415 49.142 167.482 49.142C166.549 49.2753 155.749 49.2753 143.215 49.142C127.615 48.8753 116.949 49.4086 109.215 50.8753C98.5488 52.742 67.8821 63.4086 43.3488 73.8086L32.6821 78.342L38.5488 72.2086C57.8821 52.342 92.4155 28.6086 117.215 18.342C127.749 13.942 148.015 10.0753 171.882 7.67529C179.615 6.87527 191.349 5.67529 198.149 5.00861C213.882 3.2753 225.482 3.2753 234.682 5.00861C238.682 5.80862 250.282 6.60861 260.549 6.87527C275.349 7.2753 280.815 7.94196 287.215 10.2086C293.749 12.6086 296.815 13.0086 303.882 12.3419C312.815 11.4086 318.415 12.742 332.549 19.0086L337.882 21.2753L335.349 18.4753C333.882 17.0086 331.749 15.6753 330.415 15.6753C329.082 15.6753 325.882 14.4753 323.215 13.0086C319.349 10.8753 316.015 10.3419 304.549 10.3419C293.082 10.3419 289.749 9.80862 285.882 7.67529C282.949 6.07529 278.682 5.00861 274.815 5.00861C271.215 5.00861 267.882 4.47528 267.082 3.67529C264.549 1.14197 213.349 -1.12473 195.882 0.608612Z" fill="black"/>
<path d="M341.215 23.0086C345.615 25.5419 347.349 25.5419 345.215 23.0086C344.282 21.9419 342.282 21.0086 340.682 21.0086C338.015 21.1419 338.015 21.2752 341.215 23.0086Z" fill="black"/>
<path d="M351.882 27.6753C352.949 28.4753 355.082 29.8086 356.549 30.6086C359.216 32.0753 359.216 32.0753 356.682 29.142C355.216 27.6753 353.216 26.342 352.016 26.342C350.149 26.342 350.149 26.6086 351.882 27.6753Z" fill="black"/>
<path d="M360.015 32.342C361.482 33.6753 377.349 43.6753 381.482 45.8087L385.882 48.0753L382.815 44.742C381.215 42.8753 377.215 40.2087 374.015 38.6087C370.815 37.0086 367.482 34.742 366.549 33.6753C365.615 32.6087 363.615 31.6753 362.149 31.6753C360.682 31.6753 359.749 31.942 360.015 32.342Z" fill="black"/>
<path d="M388.282 49.4085C389.616 50.3419 405.482 60.4752 423.482 72.0752C459.882 95.5419 468.682 101.942 476.816 111.409C488.016 124.475 503.882 152.342 514.549 177.675C517.616 185.009 524.549 200.342 529.882 211.675C535.216 223.009 540.682 235.675 541.882 239.675C543.216 243.675 546.016 250.609 548.149 254.875C550.682 259.675 553.082 268.075 554.549 276.209C558.416 297.009 559.216 299.809 563.349 307.009C568.416 315.809 586.149 332.475 597.882 339.675C610.416 347.275 610.282 347.275 606.949 343.542C605.349 341.809 601.749 339.142 598.949 337.809C591.616 334.075 569.749 312.209 565.882 304.609C561.882 297.275 558.816 286.342 557.349 275.009C556.682 270.475 554.549 263.009 552.549 258.342C550.549 253.542 547.216 244.875 545.082 239.009C542.816 233.142 537.349 220.475 532.549 211.009C523.616 192.742 519.882 184.475 519.882 183.009C519.882 179.942 494.816 130.342 491.349 126.475C490.149 125.142 489.216 123.542 489.216 122.875C489.216 122.209 486.282 118.609 482.549 115.009C478.949 111.409 475.882 107.809 475.882 107.009C475.882 105.009 468.549 98.4752 461.216 93.6752C457.882 91.5419 453.749 88.4752 451.882 86.8752C450.016 85.2752 446.416 82.8752 443.882 81.4085C441.349 80.0752 434.016 75.5419 427.749 71.2752C421.482 67.1419 415.349 63.6752 414.282 63.6752C413.216 63.6752 411.082 62.3419 409.482 60.6086C407.882 58.8752 403.882 56.2086 400.682 54.6086C397.482 53.0085 394.149 50.7419 393.216 49.6752C392.282 48.6086 390.282 47.6752 388.682 47.8086C386.016 47.8086 386.016 47.9419 388.282 49.4085Z" fill="black"/>
<path d="M441.482 113.409C439.882 115.142 438.549 117.142 438.549 118.075C438.549 118.875 436.415 121.675 433.882 124.342C426.415 131.675 424.549 139.942 428.549 147.542C434.415 159.142 450.815 152.209 457.882 135.142C460.682 128.475 460.682 117.809 458.015 113.675C454.949 109.009 445.615 108.875 441.482 113.409Z" fill="black"/>
<path d="M410.416 178.209C400.549 181.409 390.282 187.009 385.482 192.209C376.416 201.542 368.282 219.675 373.216 219.675C374.016 219.675 374.549 220.609 374.549 221.675C374.549 223.942 378.549 226.342 382.549 226.342C384.282 226.342 389.482 222.475 395.616 216.609C408.282 204.475 414.816 201.675 429.882 201.675C439.349 201.675 441.749 202.209 449.482 206.075C457.082 209.809 460.682 212.875 467.882 221.942C469.349 223.809 480.149 218.342 482.949 214.209C484.016 212.875 485.216 212.075 485.616 212.609C486.149 213.009 486.549 212.475 486.549 211.275C486.549 205.275 468.549 188.342 455.616 182.075C441.882 175.409 424.016 173.809 410.416 178.209Z" fill="black"/>
<path d="M368.016 207.942C361.616 220.609 363.082 229.142 371.216 227.142C375.216 226.075 375.616 223.675 371.882 223.675C368.149 223.675 368.416 218.209 372.549 209.275C376.416 201.009 376.549 199.675 374.016 199.675C372.949 199.675 370.282 203.409 368.016 207.942Z" fill="black"/>
<path d="M415.882 216.075C398.815 222.209 387.082 239.542 384.549 262.342C382.549 281.409 391.082 305.142 405.082 318.875L413.082 326.875L408.415 333.142C399.215 345.675 395.615 359.275 398.415 370.075C400.815 378.875 402.149 376.609 401.482 365.009C400.949 355.009 401.082 353.675 405.215 345.409C423.749 307.809 484.682 291.942 507.215 318.875C511.082 323.542 511.882 323.942 511.882 321.542C511.882 317.942 502.815 309.542 495.215 306.209C492.015 304.742 486.549 303.275 482.949 302.875C472.949 301.675 473.215 301.942 475.349 294.875C476.415 291.409 477.215 283.275 477.215 276.742C477.215 249.942 462.282 224.742 441.749 217.142C433.482 213.942 422.949 213.675 415.882 216.075ZM430.949 221.942C429.215 222.209 426.549 222.209 424.949 221.942C423.215 221.675 424.549 221.409 427.882 221.409C431.215 221.409 432.549 221.675 430.949 221.942ZM446.282 226.875C448.949 228.609 452.949 232.075 455.215 234.475C459.082 238.875 458.949 238.875 453.882 234.075C450.949 231.409 445.215 227.542 441.215 225.675C437.082 223.675 435.482 222.475 437.615 223.009C439.749 223.409 443.615 225.142 446.282 226.875ZM440.549 229.542C448.415 233.142 456.949 242.075 462.149 251.942C465.349 258.209 465.749 260.475 465.749 271.675C465.749 282.342 465.349 285.275 462.815 290.075C457.749 299.542 449.615 306.475 437.882 311.542C428.949 315.275 426.149 315.809 420.282 315.275C411.749 314.342 403.349 309.809 399.882 304.209C395.882 297.809 396.682 297.542 402.949 303.275C417.749 317.009 442.815 313.142 455.082 295.275C461.215 286.475 462.549 281.542 462.549 268.875C462.549 259.142 462.282 258.209 457.082 250.609C446.015 233.809 432.282 227.275 418.415 231.809C400.149 237.942 395.349 266.475 410.015 281.542C416.282 288.075 423.749 290.209 430.015 287.275C440.815 282.075 446.815 262.609 439.615 256.075C432.282 249.409 426.682 248.742 422.682 253.809C418.949 258.609 418.815 267.942 422.549 271.675C425.882 275.009 426.815 275.009 429.749 271.809C432.549 268.742 432.015 264.209 428.815 264.475C425.882 264.742 425.882 262.875 428.815 261.809C432.815 260.209 435.215 264.209 433.749 269.942C431.215 280.475 420.282 278.475 416.015 266.609C414.015 261.142 414.149 260.609 417.082 255.009C420.415 248.609 425.749 245.542 430.815 247.009C444.282 251.142 450.015 264.475 444.015 277.675C442.682 280.609 439.482 284.875 436.815 287.275C428.282 294.875 418.549 294.742 409.615 287.009C398.282 277.409 394.549 262.475 399.215 246.609C404.282 229.809 423.882 221.675 440.549 229.542ZM404.682 258.742C404.815 267.409 409.215 276.209 415.749 280.609C418.282 282.342 419.482 283.675 418.549 283.675C417.615 283.675 414.282 281.009 411.215 277.809C405.749 272.209 402.549 264.342 402.549 256.609C402.549 254.209 403.482 251.675 404.415 251.675C404.549 251.675 404.549 254.875 404.682 258.742ZM458.682 284.075C456.682 290.075 449.615 301.009 447.749 301.009C446.949 301.009 448.149 298.875 450.282 296.342C452.549 293.809 455.482 288.742 456.815 285.142C459.349 277.809 461.082 276.875 458.682 284.075ZM418.549 306.875C419.615 307.409 418.415 307.409 415.882 307.009C413.349 306.609 410.682 305.675 410.015 305.009C408.682 303.675 412.549 304.609 418.549 306.875Z" fill="black"/>
<path d="M379.882 239.275C371.482 261.809 372.682 289.409 382.949 306.609C387.615 314.475 396.549 322.875 399.082 321.942C400.682 321.275 400.149 319.675 395.882 313.409C389.882 304.342 386.149 293.809 383.749 279.275C382.415 271.009 382.282 265.675 383.615 252.609C384.549 243.675 385.215 235.275 385.215 233.942C385.215 229.409 382.682 231.809 379.882 239.275Z" fill="black"/>
<path d="M477.882 245.009C477.349 245.809 477.749 250.742 478.682 256.075C479.482 261.409 480.282 273.275 480.416 282.609C480.549 292.075 480.682 299.675 480.949 299.675C481.082 299.675 482.549 296.875 484.149 293.275C487.882 284.742 489.216 258.742 486.149 251.409C484.016 246.209 479.349 242.609 477.882 245.009Z" fill="black"/>
<path d="M311.349 314.342C306.549 315.809 290.949 331.009 283.749 341.009C276.415 351.409 266.949 363.675 262.815 368.075C258.015 373.275 244.015 383.009 239.882 384.209C220.015 389.675 215.882 390.342 198.815 390.342C176.149 390.342 163.482 387.675 145.215 379.275C131.482 372.875 115.882 358.475 109.082 345.542C104.415 336.742 102.549 335.142 102.549 339.675C102.549 344.342 119.482 375.542 126.949 384.742C139.482 399.942 156.682 413.675 171.882 420.475C190.815 429.009 186.015 428.342 229.349 428.342L268.949 428.209L276.815 424.475C281.082 422.475 286.282 419.809 288.415 418.742C291.882 416.875 292.415 416.875 294.682 419.275C302.149 426.742 296.815 443.142 284.282 451.275C275.349 457.009 274.949 460.209 282.549 467.675C286.949 471.942 287.882 473.809 287.882 478.075C287.882 480.875 287.215 483.809 286.415 484.609C285.615 485.409 285.215 486.875 285.615 487.942C286.415 490.075 290.415 481.142 290.815 476.475C291.082 473.275 291.082 473.275 306.815 473.542L322.549 473.675L324.015 477.275C326.149 482.342 324.949 497.809 322.415 500.475C319.615 503.142 299.482 506.609 288.949 506.075C280.682 505.675 280.549 505.809 276.282 510.742C272.149 515.675 271.882 516.475 271.882 527.009C271.882 535.009 271.349 538.209 270.015 538.742C269.082 539.142 264.949 538.342 261.082 537.009C251.749 534.075 241.082 532.475 236.149 533.675C230.015 535.009 228.815 539.409 231.882 549.142C236.015 562.075 235.882 562.742 223.749 575.009C213.749 585.409 185.482 606.342 181.615 606.342C180.682 606.342 178.015 607.409 175.615 608.742C167.482 613.409 157.482 614.742 133.215 614.742C110.949 614.742 103.615 613.942 81.8821 609.142C58.9488 603.942 33.4821 587.809 27.7488 574.742C23.8821 565.675 20.2821 571.409 21.6155 584.742C22.4155 593.942 27.4821 605.809 32.5488 610.342L36.1488 613.675L33.2155 607.675C29.8821 601.142 25.2155 588.209 25.2155 585.542C25.2155 584.475 30.0155 588.742 35.7488 594.742C52.1488 611.809 71.6155 621.275 102.149 627.142C115.882 629.809 144.149 630.075 153.215 627.675C167.749 623.809 170.549 624.342 175.482 632.475C176.815 634.875 177.615 634.342 185.482 626.742C196.549 615.942 205.615 611.675 217.215 611.809C230.949 612.075 234.415 613.809 222.549 614.475C209.349 615.275 198.149 620.342 189.882 629.142C182.682 636.875 181.882 642.475 187.215 648.875C191.882 654.342 198.282 656.209 209.749 655.275C225.215 654.075 238.949 646.475 243.882 636.342C247.349 629.275 247.215 627.809 243.215 621.809C239.749 616.742 240.282 616.742 247.082 621.409C249.215 622.875 250.682 623.542 250.282 622.875C245.082 611.942 243.615 607.942 242.415 601.409C240.815 592.875 241.749 581.142 244.415 577.675C246.015 575.409 246.549 575.409 254.682 578.075C276.015 585.142 296.949 584.742 320.415 576.875C340.149 570.342 346.815 565.942 365.082 547.942C374.282 539.009 381.349 531.675 380.815 531.675C380.149 531.675 374.282 535.675 367.482 540.475C330.815 567.009 292.815 573.009 249.215 559.409L239.482 556.342L236.949 549.009C235.615 545.009 234.815 541.009 235.215 540.075C236.149 537.275 243.082 538.075 257.615 542.475C268.949 545.942 274.149 546.742 289.215 547.275C305.615 547.942 308.415 547.675 320.949 544.475C347.349 537.675 366.682 529.009 388.815 514.209C410.415 499.809 431.882 479.542 446.415 460.075C449.749 455.409 453.215 451.675 454.016 451.675C455.749 451.675 467.882 436.342 467.882 434.209C467.882 433.275 466.682 433.009 465.082 433.409C459.882 434.742 464.016 432.342 470.282 430.342C475.482 428.609 476.682 427.675 476.949 424.609C477.215 422.342 476.682 420.742 475.349 420.209C472.549 419.142 464.282 422.075 457.882 426.342C450.949 431.009 436.415 438.342 422.149 444.342C412.282 448.342 388.549 454.342 361.882 459.675C357.482 460.475 349.082 462.342 343.215 463.675C314.282 470.475 292.549 470.075 284.949 462.742C282.949 460.742 281.215 458.742 281.215 458.209C281.215 457.675 284.015 455.942 287.349 454.342C294.415 450.875 300.949 442.742 302.015 435.675C302.815 431.009 303.082 430.742 316.415 425.409C323.882 422.342 335.082 418.609 341.349 417.009C354.549 413.675 363.482 408.875 365.349 404.075C368.016 396.875 361.749 385.542 349.082 375.542C342.149 370.075 340.682 371.675 346.815 378.075C352.282 383.809 358.549 392.875 358.549 395.142C358.549 395.942 354.282 397.942 348.949 399.409C340.549 402.075 339.215 402.075 337.215 400.342C333.749 397.142 324.015 394.342 316.549 394.342C308.282 394.342 299.482 397.275 282.415 405.409C266.949 412.875 256.549 417.009 253.482 416.875C252.015 416.875 252.282 416.475 254.549 415.542C259.749 413.409 262.549 410.209 262.549 406.209C262.549 401.942 257.615 397.409 255.349 399.675C254.549 400.475 252.015 401.009 249.615 401.009C244.415 401.009 239.882 405.009 239.882 409.542C239.882 413.142 242.149 415.275 247.482 417.142C249.882 417.942 244.415 418.075 231.215 417.809C216.149 417.409 208.682 416.609 200.949 414.475C181.482 409.142 165.882 403.409 152.149 396.742C140.949 391.142 137.082 388.342 129.882 380.742C125.082 375.809 121.215 371.009 121.215 370.342C121.215 369.542 124.549 371.675 128.549 375.009C144.149 387.675 164.015 394.209 193.215 396.475C206.815 397.409 225.215 394.609 237.482 389.675C253.615 383.142 258.549 378.875 281.215 351.542C290.682 340.209 303.482 326.209 310.949 319.275C317.882 312.875 318.015 312.475 311.349 314.342ZM449.482 442.742C448.282 444.742 446.149 447.409 444.949 448.609C442.815 450.475 442.549 450.475 441.349 447.142C439.482 442.609 440.415 440.742 445.615 438.209C450.949 435.542 452.549 437.409 449.482 442.742ZM438.282 448.075C439.882 451.275 439.615 451.809 433.082 457.942C423.749 466.742 417.215 470.609 414.949 468.742C412.415 466.742 412.815 457.809 415.615 454.475C418.016 451.409 432.949 443.675 435.215 444.209C436.016 444.342 437.349 446.075 438.282 448.075ZM410.549 463.942C410.549 471.142 407.349 475.009 397.615 479.275C385.882 484.609 377.882 486.875 375.349 485.942C373.749 485.275 373.215 483.142 373.215 476.075C373.349 463.409 374.815 461.942 392.016 457.809C405.882 454.609 405.882 454.609 408.282 457.275C409.482 458.742 410.549 461.675 410.549 463.942ZM438.415 457.942C432.682 465.409 419.749 480.875 418.016 482.342C416.149 483.809 415.882 483.275 415.882 478.609C415.882 473.675 416.282 472.875 420.815 470.742C423.482 469.542 428.682 465.542 432.149 462.075C438.549 455.675 441.882 453.542 438.415 457.942ZM366.949 467.009C369.882 469.809 370.815 477.542 369.215 483.809C367.882 488.609 366.949 489.542 360.149 492.609C350.415 496.875 332.149 500.475 330.149 498.475C329.349 497.675 328.415 493.409 328.149 489.009C327.615 481.809 328.015 480.342 331.215 475.675C333.482 472.342 336.015 470.342 337.749 470.342C339.215 470.209 345.082 469.142 350.549 467.675C362.949 464.609 364.549 464.475 366.949 467.009ZM411.882 479.542C415.349 486.075 411.482 490.475 388.549 506.875C378.682 514.075 377.882 514.342 376.149 512.075C375.215 510.742 374.016 508.075 373.615 505.942C372.415 500.342 371.082 501.675 370.682 508.609C370.549 512.209 369.615 516.209 368.682 517.675C367.082 520.075 348.282 529.009 334.949 533.542C328.149 535.942 328.149 535.809 327.615 521.009C327.215 506.342 329.349 503.275 341.349 501.275C346.415 500.342 354.549 497.942 359.215 495.809C368.149 491.675 368.682 491.809 370.549 498.075L371.482 501.675L372.549 497.675C372.949 495.409 373.615 493.009 373.882 492.075C374.149 491.275 377.749 489.809 381.749 488.875C385.882 487.942 393.215 485.009 398.149 482.209C408.549 476.342 410.016 476.075 411.882 479.542ZM323.749 510.875C325.482 517.675 325.749 532.875 324.149 535.275C321.882 538.875 304.949 542.742 290.549 542.875L276.549 543.009L275.349 531.009C274.415 521.142 274.682 518.075 276.282 513.942L278.415 509.009L290.815 508.875C297.615 508.875 306.282 507.942 309.882 507.009C321.349 504.075 322.015 504.342 323.749 510.875Z" fill="black"/>
<path d="M326.549 333.942C324.415 337.542 322.149 342.342 321.749 344.875C319.082 358.475 344.815 359.542 358.682 346.342C364.549 340.742 364.815 339.809 361.482 335.675C359.615 333.409 356.949 332.475 347.882 331.542C341.615 330.742 335.482 329.675 334.282 328.875C330.949 327.142 330.949 327.142 326.549 333.942Z" fill="black"/>
<path d="M539.749 350.075C521.615 359.542 518.149 378.342 534.415 378.342C541.349 378.342 546.949 375.675 554.149 368.609C558.549 364.475 560.015 361.809 560.682 357.409C562.415 346.075 553.349 343.009 539.749 350.075Z" fill="black"/>
<path d="M620.282 355.809C631.882 366.475 633.882 369.675 641.882 391.675C649.749 413.009 661.082 435.542 667.882 443.675C671.749 448.209 676.282 451.809 681.749 454.475C686.282 456.609 688.415 457.409 686.682 456.075C674.149 446.742 661.215 431.942 661.215 427.009C661.215 426.209 658.282 419.542 654.549 412.342C650.949 405.142 647.882 398.209 647.882 396.875C647.882 395.542 647.349 394.075 646.549 393.675C645.882 393.275 645.215 391.675 645.215 390.342C645.215 388.875 644.015 385.675 642.549 383.009C641.082 380.342 639.882 377.409 639.882 376.209C639.882 371.275 625.082 354.342 615.615 348.609C608.549 344.209 610.015 346.475 620.282 355.809Z" fill="black"/>
<path d="M565.882 368.875C557.082 374.342 551.349 383.809 536.549 417.009C529.349 433.142 526.682 437.142 514.149 449.142C504.416 458.742 501.216 460.475 483.616 465.675C471.616 469.142 464.682 473.542 463.082 478.742C462.016 482.342 460.149 483.675 456.282 483.675C452.416 483.675 442.549 488.875 441.616 491.275C441.216 492.342 441.482 495.275 442.149 497.675C443.482 501.675 443.216 502.209 440.149 503.542C437.082 505.009 436.949 505.542 437.749 512.342L438.549 519.409L434.149 520.875C431.616 521.809 428.016 524.209 425.882 526.342C422.549 529.809 422.282 530.875 422.949 536.875C423.349 540.609 425.216 547.275 427.082 551.809C430.416 559.942 430.416 560.209 428.016 563.542C426.549 565.542 425.216 568.475 424.949 570.342C424.416 573.675 424.416 573.542 422.149 569.275C420.549 566.342 420.016 563.542 420.549 560.875C421.882 555.142 419.216 556.075 416.682 562.342C411.082 576.209 417.082 593.009 426.949 591.142C428.949 590.742 430.549 590.875 430.549 591.409C430.549 593.142 409.882 608.742 384.949 625.809C340.949 656.075 345.216 653.675 323.882 659.542C313.216 662.475 298.549 667.275 291.216 670.209C275.082 676.609 262.016 679.942 239.482 683.675C230.016 685.142 221.216 687.009 219.882 687.675C216.416 689.542 194.416 689.142 182.549 687.009C177.082 686.075 172.416 685.409 172.149 685.675C171.882 685.809 174.016 687.275 176.816 689.009C180.816 691.275 185.216 692.209 199.082 693.275C208.682 693.942 219.216 694.209 222.549 693.675C225.882 693.275 234.816 692.342 242.549 691.542C256.016 690.342 262.282 689.409 276.549 686.342C280.282 685.542 286.816 684.475 291.216 683.942C296.282 683.275 302.682 681.009 308.549 677.942C313.616 675.275 319.216 673.009 320.949 673.009C322.549 673.009 326.282 671.809 329.216 670.342C332.816 668.475 337.082 667.675 342.816 667.675C348.816 667.675 352.416 666.875 355.616 665.009C358.016 663.542 361.349 662.342 363.082 662.342C369.349 662.342 380.682 655.009 393.482 642.742C400.549 635.942 407.349 630.342 408.416 630.342C409.616 630.342 414.416 626.742 419.349 622.342C424.149 617.942 428.949 614.342 429.749 614.342C430.682 614.342 433.749 612.609 436.682 610.342C446.016 603.275 450.549 605.409 450.549 616.742C450.549 624.209 451.749 626.075 461.882 633.675C464.682 635.809 465.749 638.209 466.682 643.542C467.216 647.542 468.149 651.009 468.682 651.542C469.082 651.942 477.082 652.342 486.282 652.209C512.149 652.075 528.282 645.809 545.482 629.409C554.549 621.009 556.549 619.675 560.816 619.675C564.949 619.675 566.816 618.475 574.282 611.009L582.816 602.475L582.016 594.742C581.616 590.475 580.816 584.342 580.416 581.142C578.949 570.609 584.282 564.742 613.216 545.675C630.016 534.609 642.682 524.475 653.216 513.675C667.749 498.742 689.749 482.342 695.216 482.342C696.282 482.342 699.216 480.475 701.882 478.209C705.482 475.009 706.549 473.009 706.549 469.675C706.549 464.609 702.149 458.342 698.549 458.342C696.416 458.342 696.682 459.009 700.016 462.209C708.949 471.275 701.482 479.275 678.949 485.009C674.416 486.075 669.882 489.809 655.616 503.409C637.349 520.875 624.682 531.142 605.882 543.675C600.016 547.542 590.282 554.609 584.416 559.275C572.416 568.742 571.482 570.742 573.349 582.075C576.282 598.875 576.282 598.742 572.949 603.675C570.149 607.809 568.416 608.742 559.216 611.142C545.616 614.609 544.816 615.009 534.816 625.675C521.216 640.075 502.282 647.142 479.749 646.075C471.349 645.675 471.216 645.675 470.816 641.675C470.016 633.275 469.216 631.809 461.749 627.409L454.282 623.009L455.216 617.675C457.082 606.475 455.616 602.875 447.749 599.675C444.416 598.209 443.882 597.275 443.882 592.609C443.882 587.942 442.949 586.475 436.549 579.942C428.682 572.075 428.416 571.542 430.549 567.542C432.682 563.809 437.616 561.675 453.882 557.809C476.682 552.342 480.016 550.875 484.949 544.475C489.482 538.609 488.816 533.809 482.949 529.409C466.816 517.009 466.682 502.742 482.549 487.009C487.882 481.675 489.349 481.009 492.416 481.809C495.882 482.609 496.016 483.142 495.349 487.542C492.682 503.542 492.816 507.142 496.549 514.075C501.749 523.675 506.416 527.809 513.349 528.609C521.482 529.675 531.882 536.742 538.682 545.675C545.482 554.742 549.082 556.475 554.682 553.675C556.816 552.475 558.549 550.875 558.549 550.075C558.549 548.875 558.149 548.875 556.949 550.075C554.149 552.875 548.549 551.942 544.816 547.942C542.816 545.942 541.216 543.675 541.216 543.142C541.216 542.609 537.882 538.475 533.882 533.942C529.882 529.542 526.549 525.142 526.549 524.075C526.549 523.142 527.882 520.075 529.616 517.275C531.349 514.609 533.749 509.942 535.082 507.009C536.282 504.075 538.282 500.075 539.349 497.942C541.749 493.675 550.549 459.409 550.549 454.609C550.549 452.742 551.082 449.142 551.749 446.475C552.949 441.809 554.016 436.609 557.216 420.342C559.216 409.942 563.749 393.542 566.149 387.942C567.216 385.542 569.616 382.875 571.482 381.942C574.682 380.475 575.349 380.875 580.016 386.342C582.949 389.675 585.216 392.875 585.216 393.409C585.216 394.075 586.949 397.009 588.949 400.075C590.949 403.142 593.482 407.409 594.549 409.542C597.616 415.542 614.282 431.542 621.349 435.009C624.682 436.742 630.016 441.009 632.949 444.342C638.016 450.075 640.682 457.675 638.282 459.142C637.749 459.542 637.216 460.342 637.216 460.875C637.216 461.542 641.749 459.809 647.216 457.142C654.816 453.542 657.082 451.675 657.216 449.542C657.216 446.475 646.549 435.809 634.549 426.742C627.349 421.275 614.949 408.342 601.616 392.342C593.349 382.342 585.482 374.875 578.282 370.075C571.749 365.675 571.082 365.542 565.882 368.875ZM463.882 513.009C462.816 513.675 460.816 514.342 459.482 514.342C458.149 514.342 455.349 515.275 453.216 516.342C450.549 517.675 449.082 517.942 448.416 516.875C447.216 514.742 449.082 513.542 456.549 511.275C463.349 509.275 468.016 510.475 463.882 513.009Z" fill="black"/>
<path d="M475.482 397.942C472.949 400.875 471.349 407.009 472.549 409.009C473.082 409.942 474.682 409.675 477.349 408.075C480.816 405.942 481.482 405.942 482.549 407.675C486.016 413.142 483.082 425.142 476.282 433.142C474.149 435.675 471.749 439.275 470.949 441.142C468.682 446.342 454.016 461.542 444.416 468.609C439.749 472.075 435.616 475.942 435.082 477.275C434.149 480.342 436.682 483.675 439.749 483.675C446.549 483.675 465.082 466.342 467.882 457.275C468.816 454.609 470.949 449.809 472.682 446.875C474.416 443.809 475.482 441.142 475.216 440.742C474.816 440.342 476.949 438.209 479.882 435.809C487.882 429.409 493.216 419.275 493.216 410.609C493.216 404.475 492.682 402.875 489.349 399.542C484.816 395.142 478.816 394.342 475.482 397.942Z" fill="black"/>
<path d="M457.615 419.409C454.682 421.409 448.415 425.275 443.882 428.075C439.215 430.875 435.882 433.409 436.282 433.809C437.349 434.875 458.549 424.075 462.282 420.742C465.215 417.942 466.149 415.675 464.282 415.675C463.615 415.675 460.682 417.409 457.615 419.409Z" fill="black"/>
<path d="M391.882 441.809C373.749 445.542 351.749 447.675 330.415 447.675C319.882 447.675 312.949 448.342 309.082 449.675C303.882 451.542 303.082 451.542 301.749 449.675C299.615 446.875 297.215 447.142 297.215 450.209C297.215 452.875 300.415 457.009 302.549 457.009C303.082 457.009 306.149 455.809 309.349 454.342C314.282 452.075 318.149 451.675 334.549 451.675C358.949 451.675 372.949 450.075 391.882 445.142C405.882 441.542 409.082 440.342 407.749 439.142C407.482 439.009 400.282 440.209 391.882 441.809Z" fill="black"/>
<path d="M625.749 470.609L621.882 474.742L626.282 471.675C628.549 469.942 630.549 468.075 630.549 467.409C630.549 465.675 629.882 466.075 625.749 470.609Z" fill="black"/>
<path d="M615.882 480.342C613.482 482.875 611.616 485.275 612.016 485.542C612.282 485.942 614.549 483.809 616.949 480.875C622.416 474.475 621.882 474.075 615.882 480.342Z" fill="black"/>
<path d="M601.882 499.809C601.349 500.609 601.216 501.409 601.616 501.809C601.882 502.209 602.549 501.542 602.949 500.342C603.882 498.075 603.082 497.675 601.882 499.809Z" fill="black"/>
<path d="M527.882 562.609C520.149 564.742 520.549 565.942 529.615 566.875C540.682 568.075 549.215 566.075 549.215 562.209C549.215 560.609 533.749 560.875 527.882 562.609Z" fill="black"/>
<path d="M461.882 564.875C455.215 567.809 447.882 573.942 447.882 576.475C447.882 578.609 452.549 583.675 454.682 583.675C455.349 583.675 455.615 583.009 455.215 582.342C454.815 581.542 455.349 581.009 456.549 581.009C457.749 581.009 460.282 579.409 462.282 577.409C464.282 575.409 466.149 573.942 466.549 574.209C467.749 575.009 470.549 568.475 470.282 565.809C469.749 562.209 468.015 562.075 461.882 564.875Z" fill="black"/>
<path d="M469.615 576.075C464.949 577.809 455.882 585.542 455.882 587.675C455.882 590.209 459.082 589.009 463.215 585.009C465.482 582.875 469.615 580.209 472.549 579.275C478.015 577.409 480.415 574.342 476.282 574.475C474.949 574.475 472.015 575.142 469.615 576.075Z" fill="black"/>
<path d="M547.349 586.475C545.482 587.942 543.882 590.342 543.882 591.675C543.882 594.609 545.482 595.942 547.349 594.609C548.949 593.542 554.549 585.675 554.549 584.475C554.549 582.742 550.682 583.809 547.349 586.475Z" fill="black"/>
<path d="M476.549 589.809C472.149 590.742 466.682 591.542 464.282 591.675C459.482 591.675 458.015 593.142 459.215 597.009C459.749 598.742 461.215 599.675 463.615 599.675L467.215 599.809L463.615 601.809C460.149 603.675 458.549 606.342 460.949 606.342C461.615 606.342 465.215 604.875 468.949 603.009C472.815 601.142 476.682 599.675 477.482 599.675C479.749 599.675 492.949 593.275 491.082 593.142C490.282 593.009 486.949 593.809 483.482 594.875C478.815 596.209 477.615 596.342 478.015 595.009C478.415 594.075 480.149 592.742 482.015 591.942C483.749 591.009 485.215 589.809 485.215 589.009C485.215 588.342 485.082 587.675 484.949 587.809C484.682 587.942 480.949 588.742 476.549 589.809Z" fill="black"/>
<path d="M517.215 604.475C514.682 605.542 505.615 608.742 497.215 611.542C478.282 617.942 475.482 619.142 473.349 622.609C470.682 626.875 473.215 627.942 480.682 625.675C489.615 623.009 489.749 623.275 481.349 627.142C476.415 629.409 474.549 630.875 475.482 631.809C476.415 632.742 482.015 631.009 493.349 626.475C502.415 622.875 514.015 618.875 518.949 617.542C524.282 616.209 527.615 614.875 526.815 614.075C526.149 613.409 522.149 613.809 517.082 615.009C505.082 617.809 504.949 617.675 516.015 611.942C521.349 609.275 526.015 606.209 526.282 605.275C526.815 603.675 526.282 603.675 523.749 605.142C520.815 606.609 520.682 606.609 522.415 604.609C524.682 601.809 523.349 601.809 517.215 604.475Z" fill="black"/>
<path d="M38.5488 618.209C38.5488 619.542 56.5488 637.009 57.8822 637.009C58.5488 637.009 61.7488 639.542 64.8155 642.609C68.0155 645.675 70.5488 647.542 70.5488 646.742C70.5488 645.809 67.0822 642.609 62.9488 639.409C58.6822 636.209 51.4822 630.075 46.9488 625.542C42.2822 621.142 38.5488 617.809 38.5488 618.209Z" fill="black"/>
<path d="M77.7488 652.742C79.2155 654.342 81.0821 655.675 81.8821 655.675C82.8155 655.675 84.2821 656.609 85.2155 657.675C87.2155 660.075 99.7488 666.342 102.682 666.342C104.015 666.342 105.482 666.875 105.882 667.675C106.282 668.342 108.682 669.009 110.949 668.875C114.415 668.875 113.349 668.209 105.615 665.542C96.9488 662.609 90.4155 659.275 78.9488 652.075L75.2155 649.809L77.7488 652.742Z" fill="black"/>
<path d="M116.549 670.342C116.949 671.009 118.682 671.675 120.282 671.542C123.082 671.542 123.082 671.409 120.549 670.342C116.815 668.742 115.615 668.742 116.549 670.342Z" fill="black"/>
<path d="M124.549 673.009C124.949 673.675 127.349 674.342 129.615 674.209C133.749 674.075 133.749 674.075 130.549 673.009C125.749 671.542 123.615 671.542 124.549 673.009Z" fill="black"/>
<path d="M134.549 674.742C134.549 676.342 143.882 679.809 146.815 679.409C149.215 679.009 148.815 678.475 144.149 677.142C140.949 676.342 137.482 675.142 136.415 674.742C135.349 674.342 134.549 674.342 134.549 674.742Z" fill="black"/>
<path d="M151.216 681.009C151.616 681.675 153.349 682.342 154.949 682.209C157.749 682.209 157.749 682.075 155.216 681.009C151.482 679.409 150.282 679.409 151.216 681.009Z" fill="black"/>
<path d="M159.215 683.675C159.615 684.342 162.549 685.009 165.615 684.875C170.015 684.875 170.682 684.609 168.549 683.675C164.815 682.075 158.149 682.075 159.215 683.675Z" fill="black"/>
</svg>
